<svg xmlns="http://www.w3.org/2000/svg" width="128" height="128" fill="none" viewBox="0 0 128 128"><rect width="104" height="84" x="12" y="32" fill="url(#a)" rx="4"/><path fill="#6b8fe8" d="M12 62a8 8 0 0 1 8-8h88a8 8 0 0 1 8 8v30H12z"/><path stroke="#a5c8f2" stroke-width="2" d="M111 92a3 3 0 0 0-3-3H91a3 3 0 0 1-3-3V74a3 3 0 0 1 3-3h1M24 93V80a8 8 0 0 0-8-8h-4"/><path stroke="#a5c8f2" stroke-width="2" d="M21 93V80a5 5 0 0 0-5-5h-4"/><path stroke="#a5c8f2" stroke-width="2" d="M18 93V80a2 2 0 0 0-2-2h-4"/><path stroke="#a5c8f2" stroke-width="2" d="M15 93V82a1 1 0 0 0-1-1h-2M77 92V76a8 8 0 0 0-8-8h-2"/><path stroke="#a5c8f2" stroke-width="2" d="M74 92V76a5 5 0 0 0-5-5h-2"/><path stroke="#a5c8f2" stroke-width="2" d="M71 92V76a2 2 0 0 0-2-2h-2"/><path stroke="#a5c8f2" stroke-width="2" d="M68 92V78a1 1 0 0 0-1-1M46 54v15a8 8 0 0 0 8 8h13"/><path stroke="#a5c8f2" stroke-width="2" d="M49 54v15a5 5 0 0 0 5 5h13"/><path stroke="#a5c8f2" stroke-width="2" d="M52 54v15a2 2 0 0 0 2 2h13"/><path stroke="#a5c8f2" stroke-width="2" d="M55 54v13a1 1 0 0 0 1 1h11"/><path stroke="#a5c8f2" stroke-linecap="round" stroke-width="2" d="M20 63v-4M24 63v-4M28 63v-4M32 63v-4M36 63v-4"/><rect width="25" height="7" x="16" y="60" fill="gray" rx="2"/><rect width="25" height="5" x="16" y="62" fill="#595959" rx="2"/><rect width="23" height="3" x="17" y="63" fill="#202020" rx="1"/><path fill="gray" d="M19 66a1 1 0 0 1 1-1h1a1 1 0 0 1 1 1zM23 66a1 1 0 0 1 1-1h1a1 1 0 0 1 1 1zM27 66a1 1 0 0 1 1-1h1a1 1 0 0 1 1 1zM31 66a1 1 0 0 1 1-1h1a1 1 0 0 1 1 1zM35 66a1 1 0 0 1 1-1h1a1 1 0 0 1 1 1z"/><rect width="108" height="64" x="10" y="30" stroke="#213872" stroke-width="4" rx="6"/><path fill="url(#b)" d="M8 96h112v12a8 8 0 0 1-8 8H16a8 8 0 0 1-8-8z"/><g filter="url(#c)"><path fill="#202020" d="M29 101a1 1 0 0 1 1 1v6a1 1 0 0 1-1 1h-1v1a1 1 0 0 1-1 1h-6a1 1 0 0 1-1-1v-1h-1a1 1 0 0 1-1-1v-6a1 1 0 0 1 1-1z"/></g><g filter="url(#d)"><path fill="#202020" d="M49 101a1 1 0 0 1 1 1v6a1 1 0 0 1-1 1h-1v1a1 1 0 0 1-1 1h-6a1 1 0 0 1-1-1v-1h-1a1 1 0 0 1-1-1v-6a1 1 0 0 1 1-1z"/></g><g filter="url(#e)"><path fill="#202020" d="M69 101a1 1 0 0 1 1 1v6a1 1 0 0 1-1 1h-1v1a1 1 0 0 1-1 1h-6a1 1 0 0 1-1-1v-1h-1a1 1 0 0 1-1-1v-6a1 1 0 0 1 1-1z"/></g><path fill="url(#f)" d="M8 88a8 8 0 0 0 8 8H8z"/><path fill="url(#g)" d="M120 88a8 8 0 0 1-8 8h8z"/><rect width="4" height="2" fill="#303030" rx="1" transform="matrix(0 1 1 0 94 58)"/><path fill="#404040" d="M95 59a1 1 0 0 0-1 1v2h2v-2a1 1 0 0 0-1-1"/><rect width="4" height="2" fill="#303030" rx="1" transform="matrix(0 1 1 0 98 58)"/><path fill="#404040" d="M99 59a1 1 0 0 0-1 1v2h2v-2a1 1 0 0 0-1-1"/><rect width="4" height="2" fill="#303030" rx="1" transform="matrix(0 1 1 0 102 58)"/><path fill="#404040" d="M103 59a1 1 0 0 0-1 1v2h2v-2a1 1 0 0 0-1-1"/><rect width="4" height="2" fill="#303030" rx="1" transform="matrix(0 1 1 0 106 58)"/><path fill="#404040" d="M107 59a1 1 0 0 0-1 1v2h2v-2a1 1 0 0 0-1-1"/><path fill="#595959" d="M94 84a4 4 0 0 1-4-4V64a4 4 0 0 1 4-4h14a4 4 0 0 1 4 4v16a4 4 0 0 1-4 4z"/><rect width="4" height="2" x="94" y="86" fill="#303030" rx="1" transform="rotate(-90 94 86)"/><path fill="#404040" d="M95 85a1 1 0 0 1-1-1v-2h2v2a1 1 0 0 1-1 1"/><rect width="4" height="2" x="98" y="86" fill="#303030" rx="1" transform="rotate(-90 98 86)"/><path fill="#404040" d="M99 85a1 1 0 0 1-1-1v-2h2v2a1 1 0 0 1-1 1"/><rect width="4" height="2" x="102" y="86" fill="#303030" rx="1" transform="rotate(-90 102 86)"/><path fill="#404040" d="M103 85a1 1 0 0 1-1-1v-2h2v2a1 1 0 0 1-1 1"/><rect width="4" height="2" x="106" y="86" fill="#303030" rx="1" transform="rotate(-90 106 86)"/><path fill="#404040" d="M107 85a1 1 0 0 1-1-1v-2h2v2a1 1 0 0 1-1 1"/><path fill="gray" d="M94 80a4 4 0 0 1-4-4V64a4 4 0 0 1 4-4h14a4 4 0 0 1 4 4v12a4 4 0 0 1-4 4z"/><path fill="#a5c8f2" d="M35 78a2 2 0 1 1 0 4 2 2 0 0 1 0-4M31 75a2 2 0 1 1 0 4 2 2 0 0 1 0-4M35 72a2 2 0 1 1 0 4 2 2 0 0 1 0-4M29 83a2 2 0 1 1 4 0 2 2 0 0 1-4 0M33 86a2 2 0 1 1 4 0 2 2 0 0 1-4 0"/><g filter="url(#h)"><path fill="#d8d9dc" fill-rule="evenodd" d="M82 73.741V62.058C82 58.712 79.314 56 76 56H52c-3.314 0-6 2.712-6 6.058V73.74c0 3.213 1.264 7.42 3.515 9.692L52 85.943h24l2.485-2.51C80.735 81.161 82 76.954 82 73.741" clip-rule="evenodd"/></g><path fill="url(#i)" d="M59 54h10v13a5 5 0 0 1-10 0z"/><path fill="#fff" fill-opacity=".33" d="M59 54h10v13a5 5 0 0 1-10 0z"/><path fill="url(#j)" d="M59 49a5 5 0 0 1 10 0v6a5 5 0 0 1-10 0z"/><path fill="#696670" d="M59 49a5 5 0 1 0 10 0 5 5 0 0 0-10 0"/><path fill="url(#k)" d="M60 35a4 4 0 0 1 8 0v14.333A3.667 3.667 0 0 1 64.333 53h-.666A3.667 3.667 0 0 1 60 49.333z"/><path fill="url(#l)" d="M69 35v-7H59v7a5 5 0 0 0 10 0"/><g filter="url(#m)"><path fill="#8b8891" fill-rule="evenodd" d="M76 12H52v10c0 6.627 5.373 12 12 12s12-5.373 12-12zM64 28a8 8 0 0 1-8-8v-.571c0-.79.64-1.429 1.429-1.429H70.57c.79 0 1.429.64 1.429 1.429V20a8 8 0 0 1-8 8" clip-rule="evenodd"/></g><path fill="#494358" d="M52 10a2 2 0 0 1 2-2h20a2 2 0 0 1 2 2v2a2 2 0 0 1-2 2H54a2 2 0 0 1-2-2z"/><path fill="#625d6e" d="M52 10a2 2 0 0 1 2-2h20a2 2 0 1 1 0 4H54a2 2 0 0 1-2-2"/><path stroke="#3f65c2" stroke-linecap="round" stroke-width="4" d="m76 86-2.211 1.106a4 4 0 0 1-3.578 0l-.422-.212a4 4 0 0 0-3.578 0l-.422.212a4 4 0 0 1-3.578 0l-.422-.212a4 4 0 0 0-3.578 0l-.422.212a4 4 0 0 1-3.578 0L52 86"/><defs><linearGradient id="a" x1="116" x2="12" y1="32" y2="32" gradientUnits="userSpaceOnUse"><stop offset=".02" stop-color="#446bcc"/><stop offset=".05" stop-color="#2a50b1"/><stop offset=".95" stop-color="#2a50b1"/><stop offset=".98" stop-color="#446bcc"/></linearGradient><linearGradient id="b" x1="120" x2="8" y1="96" y2="96" gradientUnits="userSpaceOnUse"><stop stop-color="#7b9ef5"/><stop offset=".02" stop-color="#85a8ff"/><stop offset=".05" stop-color="#4d76db"/><stop offset=".95" stop-color="#4d76db"/><stop offset=".98" stop-color="#85a8ff"/><stop offset="1" stop-color="#7b9ef5"/></linearGradient><linearGradient id="f" x1="120" x2="8" y1="96" y2="96" gradientUnits="userSpaceOnUse"><stop stop-color="#7b9ef5"/><stop offset=".02" stop-color="#85a8ff"/><stop offset=".05" stop-color="#4d76db"/><stop offset=".95" stop-color="#4d76db"/><stop offset=".98" stop-color="#85a8ff"/><stop offset="1" stop-color="#7b9ef5"/></linearGradient><linearGradient id="g" x1="8" x2="120" y1="96" y2="96" gradientUnits="userSpaceOnUse"><stop stop-color="#7b9ef5"/><stop offset=".02" stop-color="#85a8ff"/><stop offset=".05" stop-color="#4d76db"/><stop offset=".95" stop-color="#4d76db"/><stop offset=".98" stop-color="#85a8ff"/><stop offset="1" stop-color="#7b9ef5"/></linearGradient><linearGradient id="i" x1="59" x2="69" y1="51.429" y2="51.429" gradientUnits="userSpaceOnUse"><stop stop-color="#8b8891"/><stop offset=".4" stop-color="#b1b1b1"/><stop offset=".6" stop-color="#b1b1b1"/><stop offset="1" stop-color="#8b8891"/></linearGradient><linearGradient id="j" x1="59" x2="69" y1="44" y2="44" gradientUnits="userSpaceOnUse"><stop stop-color="#8b8891"/><stop offset=".4" stop-color="#b1b1b1"/><stop offset=".6" stop-color="#b1b1b1"/><stop offset="1" stop-color="#8b8891"/></linearGradient><linearGradient id="k" x1="60" x2="68" y1="41.12" y2="41.12" gradientUnits="userSpaceOnUse"><stop stop-color="#8a705d"/><stop offset=".3" stop-color="#bd9a7f"/><stop offset=".7" stop-color="#bd9a7f"/><stop offset="1" stop-color="#8a705d"/></linearGradient><linearGradient id="l" x1="59" x2="69" y1="28" y2="28" gradientUnits="userSpaceOnUse"><stop stop-color="#8b8891"/><stop offset=".4" stop-color="#b1b1b1"/><stop offset=".6" stop-color="#b1b1b1"/><stop offset="1" stop-color="#8b8891"/></linearGradient><filter id="c" width="12" height="10" x="18" y="101" color-interpolation-filters="sRGB" filterUnits="userSpaceOnUse"><feFlood flood-opacity="0" result="BackgroundImageFix"/><feBlend in="SourceGraphic" in2="BackgroundImageFix" result="shape"/><feColorMatrix in="SourceAlpha" result="hardAlpha" values="0 0 0 0 0 0 0 0 0 0 0 0 0 0 0 0 0 0 127 0"/><feOffset dy="-3"/><feComposite in2="hardAlpha" k2="-1" k3="1" operator="arithmetic"/><feColorMatrix values="0 0 0 0 0.129412 0 0 0 0 0.219608 0 0 0 0 0.447059 0 0 0 1 0"/><feBlend in2="shape" result="effect1_innerShadow_300_218"/></filter><filter id="d" width="12" height="10" x="38" y="101" color-interpolation-filters="sRGB" filterUnits="userSpaceOnUse"><feFlood flood-opacity="0" result="BackgroundImageFix"/><feBlend in="SourceGraphic" in2="BackgroundImageFix" result="shape"/><feColorMatrix in="SourceAlpha" result="hardAlpha" values="0 0 0 0 0 0 0 0 0 0 0 0 0 0 0 0 0 0 127 0"/><feOffset dy="-3"/><feComposite in2="hardAlpha" k2="-1" k3="1" operator="arithmetic"/><feColorMatrix values="0 0 0 0 0.129412 0 0 0 0 0.219608 0 0 0 0 0.447059 0 0 0 1 0"/><feBlend in2="shape" result="effect1_innerShadow_300_218"/></filter><filter id="e" width="12" height="10" x="58" y="101" color-interpolation-filters="sRGB" filterUnits="userSpaceOnUse"><feFlood flood-opacity="0" result="BackgroundImageFix"/><feBlend in="SourceGraphic" in2="BackgroundImageFix" result="shape"/><feColorMatrix in="SourceAlpha" result="hardAlpha" values="0 0 0 0 0 0 0 0 0 0 0 0 0 0 0 0 0 0 127 0"/><feOffset dy="-3"/><feComposite in2="hardAlpha" k2="-1" k3="1" operator="arithmetic"/><feColorMatrix values="0 0 0 0 0.129412 0 0 0 0 0.219608 0 0 0 0 0.447059 0 0 0 1 0"/><feBlend in2="shape" result="effect1_innerShadow_300_218"/></filter><filter id="h" width="36" height="31.942" x="46" y="54" color-interpolation-filters="sRGB" filterUnits="userSpaceOnUse"><feFlood flood-opacity="0" result="BackgroundImageFix"/><feColorMatrix in="SourceAlpha" result="hardAlpha" values="0 0 0 0 0 0 0 0 0 0 0 0 0 0 0 0 0 0 127 0"/><feOffset dy="-2"/><feComposite in2="hardAlpha" operator="out"/><feColorMatrix values="0 0 0 0 0.705882 0 0 0 0 0.705882 0 0 0 0 0.705882 0 0 0 1 0"/><feBlend in2="BackgroundImageFix" result="effect1_dropShadow_300_218"/><feBlend in="SourceGraphic" in2="effect1_dropShadow_300_218" result="shape"/></filter><filter id="m" width="24" height="24" x="52" y="10" color-interpolation-filters="sRGB" filterUnits="userSpaceOnUse"><feFlood flood-opacity="0" result="BackgroundImageFix"/><feColorMatrix in="SourceAlpha" result="hardAlpha" values="0 0 0 0 0 0 0 0 0 0 0 0 0 0 0 0 0 0 127 0"/><feOffset dy="-2"/><feComposite in2="hardAlpha" operator="out"/><feColorMatrix values="0 0 0 0 0.411558 0 0 0 0 0.398588 0 0 0 0 0.4375 0 0 0 1 0"/><feBlend in2="BackgroundImageFix" result="effect1_dropShadow_300_218"/><feBlend in="SourceGraphic" in2="effect1_dropShadow_300_218" result="shape"/></filter></defs></svg>