<svg xmlns="http://www.w3.org/2000/svg" enable-background="new 0 0 512 512" viewBox="0 0 512 512" id="shovel">
  <path fill="#d1dee7" d="M268.587,371.784c16.224,7.367,20.321,28.491,7.721,41.09l-75.234,75.234
			C164.801,524.382,80.767,511.02,39.72,501.68c-14.686-3.342-26.093-14.754-29.428-29.441
			c-9.321-41.046-22.648-125.069,13.597-161.315l75.234-75.234c12.6-12.6,33.723-8.503,41.09,7.721
			C166.938,302.268,209.73,345.059,268.587,371.784z"></path>
  <rect width="244.896" height="41.003" x="207.527" y="161.521" fill="#f6ce6e" transform="rotate(-45.001 329.974 182.028)"></rect>
  <path fill="#e7e6e5" d="M228.908,254.123l-98.99,98.99c-4.12,4.12-9.245,16.929-13.247,28.384
				c-2.995,8.573,5.257,16.825,13.83,13.83c11.455-4.002,24.264-9.127,28.384-13.247l98.99-98.99L228.908,254.123z"></path>
  <path fill="#f7c84b" d="M510.418,88.69l-7.911-7.911L431.219,9.49l-7.91-7.911c-2.105-2.105-5.516-2.105-7.621,0
			c-2.105,2.105-2.105,5.516,0,7.621l4.1,4.1l-11.942,11.942c-8.624,8.621-13.371,20.084-13.371,32.276v21.226
			c0,1.429,0.568,2.8,1.579,3.811l33.389,33.389c1.011,1.011,2.382,1.579,3.811,1.579h21.226c12.192,0,23.655-4.747,32.276-13.371
			l11.942-11.942l4.1,4.1c1.053,1.053,2.432,1.579,3.811,1.579c1.379,0,2.758-0.526,3.811-1.579
			C512.524,94.206,512.524,90.795,510.418,88.69z M479.134,96.532c-6.587,6.587-15.342,10.213-24.655,10.213h-18.995l-30.232-30.232
			V57.519c0-9.313,3.626-18.068,10.213-24.655l11.942-11.942l63.668,63.668L479.134,96.532z"></path>
</svg>
