<svg xmlns="http://www.w3.org/2000/svg" viewBox="0 0 32 32" id="shovel">
  <polygon fill="#8b8891" points="31 4.994 29.51 6.494 29.5 6.494 25.52 2.514 27.02 1.014 31 4.994"></polygon>
  <polygon fill="#8b8891" points="6.49 2.524 2.52 6.494 2.49 6.494 1 4.994 4.98 1.014 6.49 2.524"></polygon>
  <path fill="#d8d9dc" d="M13.935,25.12,9.328,29.726a6,6,0,0,1-4.243,1.757H2.5a2,2,0,0,1-2-2V26.9a6,6,0,0,1,1.757-4.243l4.607-4.607a2,2,0,0,1,2.828,0l4.243,4.243A2,2,0,0,1,13.935,25.12Z"></path>
  <path fill="#bd9a7f" d="M25.6,8.02l-.78.77L13.71,19.9l-1.55-1.63,2.25-2.25L16,14.43l8.01-8.01a2.267,2.267,0,0,0,1.59,1.6Z"></path>
  <path fill="#8b8891" d="M11.12 22.476l2.031-1.514a1.5 1.5 0 0 0 .163-2.255h0a1.5 1.5 0 0 0-2.255.163L9.545 20.9A1.126 1.126 0 0 0 11.12 22.476zM31.35 4.639L27.37.659a.5.5 0 0 0-.7 0l-2.78 2.79a3.283 3.283 0 0 0-.97 2.34 3.194 3.194 0 0 0 .32 1.4 3.036 3.036 0 0 0 .65.95 3.258 3.258 0 0 0 .93.65 3.3 3.3 0 0 0 1.41.32 3.35 3.35 0 0 0 2.35-.97L29.8 6.9a.262.262 0 0 0 .06-.05l1.49-1.5A.5.5 0 0 0 31.35 4.639zm-3.48 2.79a2.32 2.32 0 0 1-2.27.59 2.336 2.336 0 0 1-1.68-2.23 2.293 2.293 0 0 1 .68-1.63l1.28-1.29 1.14-1.15L30.29 5l-1.08 1.09a.265.265 0 0 0-.06.05z"></path>
  <path fill="#d8d9dc" d="M18.065,25.12l4.607,4.607a6,6,0,0,0,4.243,1.757H29.5a2,2,0,0,0,2-2V26.9a6,6,0,0,0-1.757-4.243l-4.607-4.607a2,2,0,0,0-2.828,0l-4.243,4.243A2,2,0,0,0,18.065,25.12Z"></path>
  <path fill="#bd9a7f" d="M19.84,18.269,18.29,19.9,16,17.609l-1.59-1.59L7.18,8.789H7.17l-.77-.77a2.266,2.266,0,0,0,1.59-1.6L16,14.429l1.59,1.59Z"></path>
  <rect width=".707" height="2.249" x="14.601" y="15.941" fill="#b18968" transform="rotate(-45 14.955 17.066)"></rect>
  <polygon fill="#b18968" points="18.09 15.52 17.59 16.02 16 14.43 16.5 13.93 17.59 15.02 18.09 15.52"></polygon>
  <path fill="#8b8891" d="M20.88 22.476l-2.031-1.514a1.5 1.5 0 0 1-.163-2.255h0a1.5 1.5 0 0 1 2.255.163L22.455 20.9A1.126 1.126 0 0 1 20.88 22.476zM8.11 3.449L5.33.659a.5.5 0 0 0-.7 0L.65 4.639a.5.5 0 0 0 0 .71l2.78 2.79a3.31 3.31 0 0 0 2.34.97 3.258 3.258 0 0 0 1.4-.32h.01a3.257 3.257 0 0 0 .93-.65 3.036 3.036 0 0 0 .65-.95 3.193 3.193 0 0 0 .32-1.4A3.283 3.283 0 0 0 8.11 3.449zm-.7 3.98a2.269 2.269 0 0 1-1.01.59 2.331 2.331 0 0 1-2.27-.59L2.86 6.159 1.71 5l3.27-3.28 1.15 1.16 1.28 1.28a2.326 2.326 0 0 1 .67 1.63 2.392 2.392 0 0 1-.67 1.64z"></path>
</svg>
