<svg width="16" height="16" viewBox="0 0 16 16" fill="none" xmlns="http://www.w3.org/2000/svg">
<path d="M7 4H9V9.5H7V4Z" fill="white" fill-opacity="0.5"/>
<path fill-rule="evenodd" clip-rule="evenodd" d="M11 1.125C11 0.50368 10.4963 0 9.875 0H6.125C5.50368 0 5 0.50368 5 1.125V1.5C5 3.15685 6.34315 4.5 8 4.5C9.65685 4.5 11 3.15685 11 1.5V1.125ZM8 3.5C6.89543 3.5 6 2.60457 6 1.5V1.35714C6 1.1599 6.1599 1 6.35714 1H9.64286C9.8401 1 10 1.1599 10 1.35714V1.5C10 2.60457 9.10457 3.5 8 3.5Z" fill="white"/>
<path d="M11.5 7C12.3284 7 13 7.67802 13 8.5144V11.4353C13 12.2386 12.6839 13.2904 12.1213 13.8584L10.8787 15.1128C10.3161 15.6808 9.55297 16 8.75732 16H7.24268C6.44703 16 5.68395 15.6808 5.12134 15.1128L3.87866 13.8584C3.31605 13.2904 3 12.2386 3 11.4353V8.5144C3.00001 7.67802 3.67158 7 4.5 7H11.5Z" fill="white"/>
</svg>
